<?xml version="1.0" standalone="no"?>
<!DOCTYPE svg PUBLIC "-//W3C//DTD SVG 20010904//EN"
 "http://www.w3.org/TR/2001/REC-SVG-20010904/DTD/svg10.dtd">
<svg version="1.0" xmlns="http://www.w3.org/2000/svg"
 width="942.000000pt" height="661.000000pt" viewBox="0 0 942.000000 661.000000"
 preserveAspectRatio="xMidYMid meet">

<g transform="translate(0.000000,661.000000) scale(0.100000,-0.100000)"
fill="#000000" stroke="none">
<path d="M1539 6395 c-36 -19 -42 -38 -98 -282 -114 -500 -113 -490 -97 -528
17 -39 50 -59 126 -74 30 -5 118 -24 195 -41 329 -72 417 -90 446 -90 52 0 73
33 103 166 16 65 52 222 82 347 30 125 54 247 54 270 0 45 -22 80 -57 91 -44
14 -690 156 -708 156 -11 -1 -32 -7 -46 -15z"/>
<path d="M2534 6176 c-23 -10 -36 -26 -48 -58 -22 -60 -166 -685 -166 -723 0
-38 21 -69 57 -83 59 -23 631 -145 685 -146 97 -2 94 -7 193 402 47 194 85
364 85 378 0 35 -48 80 -101 94 -56 15 -592 135 -639 143 -20 4 -48 1 -66 -7z"/>
<path d="M3515 5946 c-17 -7 -36 -24 -42 -38 -15 -33 -173 -719 -173 -752 0
-14 12 -39 28 -56 26 -29 45 -34 362 -105 184 -41 349 -75 365 -75 33 0 69 21
85 49 13 26 170 701 170 734 0 41 -25 83 -57 95 -21 8 -442 104 -688 157 -11
3 -34 -1 -50 -9z"/>
<path d="M1297 5390 c-14 -11 -30 -35 -36 -53 -16 -52 -150 -638 -157 -690 -8
-57 10 -105 44 -118 22 -8 519 -120 663 -149 61 -12 93 -5 121 27 15 16 123
444 174 690 18 87 5 132 -42 151 -35 14 -695 162 -722 162 -11 0 -31 -9 -45
-20z"/>
<path d="M6720 5300 c-496 -45 -990 -268 -1575 -710 -83 -62 -307 -244 -500
-405 -364 -303 -475 -393 -635 -512 -471 -351 -934 -533 -1520 -598 -74 -8
-283 -19 -465 -25 -788 -24 -1042 -68 -1390 -242 -129 -64 -159 -83 -104 -68
52 15 240 48 384 67 100 13 207 17 460 17 295 0 361 -3 620 -29 251 -26 329
-30 580 -30 313 1 434 12 655 61 588 131 1021 390 1649 985 565 536 775 714
1096 931 431 291 866 456 1299 494 91 8 85 15 -29 38 -170 33 -344 42 -525 26z"/>
<path d="M2275 5158 c-28 -25 -37 -58 -140 -516 -51 -225 -56 -256 -45 -283 7
-17 23 -37 34 -44 18 -12 383 -97 640 -150 94 -19 125 -11 150 38 16 30 62
217 143 573 33 145 35 165 23 194 -7 17 -23 38 -36 46 -23 16 -671 164 -716
164 -15 0 -38 -10 -53 -22z"/>
<path d="M3252 4927 c-14 -15 -32 -60 -46 -118 -61 -240 -148 -617 -149 -646
0 -19 8 -45 20 -60 18 -25 40 -33 219 -75 475 -112 513 -120 549 -108 57 19
55 11 166 490 76 327 76 355 -3 383 -67 24 -660 157 -699 157 -24 0 -43 -7
-57 -23z"/>
<path d="M7320 4859 c-572 -38 -1146 -357 -1930 -1074 -254 -232 -519 -460
-668 -573 -504 -384 -1024 -599 -1612 -668 -172 -20 -441 -22 -1030 -11 -269
6 -426 5 -445 -1 -22 -8 -25 -11 -10 -11 12 -1 144 -26 295 -56 524 -104 680
-128 956 -146 674 -44 1228 88 1794 429 287 172 505 346 955 762 202 187 330
300 445 396 401 334 795 546 1191 643 360 88 794 93 1319 15 l35 -5 -45 24
c-69 38 -317 134 -458 178 -258 80 -541 115 -792 98z"/>
<path d="M1045 4376 c-28 -28 -28 -28 -117 -416 -77 -332 -84 -386 -54 -419
23 -25 37 -29 271 -81 105 -23 247 -55 316 -71 159 -36 181 -36 219 -1 27 25
34 46 80 247 28 121 62 267 76 325 36 146 41 213 20 245 -22 34 -28 36 -283
94 -514 117 -491 113 -528 77z"/>
<path d="M2047 4170 c-30 -19 -47 -67 -88 -248 -22 -98 -58 -253 -80 -347 -21
-93 -39 -183 -39 -198 0 -53 42 -81 165 -110 284 -67 310 -70 461 -64 152 6
202 19 227 59 8 12 40 130 71 261 104 433 104 434 65 476 -11 11 -30 23 -42
26 -684 157 -711 163 -740 145z"/>
<path d="M7442 4089 c-456 -40 -885 -238 -1317 -608 -55 -47 -179 -158 -275
-246 -238 -218 -309 -279 -421 -367 -269 -209 -525 -361 -803 -475 -208 -86
-275 -105 -626 -182 -49 -11 380 -7 455 4 590 87 1040 302 1666 799 527 419
842 599 1244 711 270 75 405 90 770 82 154 -4 363 -13 465 -21 225 -19 616
-30 580 -17 -14 5 -72 19 -130 31 -58 12 -222 56 -365 97 -301 86 -410 113
-555 142 -240 47 -505 67 -688 50z"/>
<path d="M3023 3938 c-35 -17 -49 -59 -108 -319 -30 -134 -62 -271 -69 -304
-8 -33 -14 -60 -13 -61 4 -4 161 33 242 56 188 53 448 172 626 288 108 70 130
100 110 151 -16 37 -35 45 -214 86 -84 19 -228 53 -322 75 -177 42 -215 46
-252 28z"/>
<path d="M2693 1875 c-47 -29 -83 -92 -83 -146 0 -50 39 -120 80 -144 49 -28
133 -27 180 2 70 43 99 139 66 217 -36 86 -159 123 -243 71z"/>
<path d="M3950 1595 c0 -157 -3 -285 -6 -285 -4 0 -25 16 -47 36 -61 56 -153
94 -240 101 -203 15 -378 -88 -472 -281 -46 -93 -65 -185 -65 -322 0 -192 50
-330 158 -438 107 -106 193 -139 347 -134 87 3 108 7 165 34 36 17 86 50 113
73 l47 43 0 -66 0 -66 150 0 150 0 0 795 0 795 -150 0 -150 0 0 -285z m-115
-420 c30 -14 67 -43 83 -62 27 -36 27 -39 30 -202 5 -233 0 -260 -51 -312
-134 -135 -341 -110 -422 51 -48 96 -56 261 -18 381 22 68 100 151 158 167 64
18 157 8 220 -23z"/>
<path d="M5700 1085 l0 -795 145 0 145 0 0 795 0 795 -145 0 -145 0 0 -795z"/>
<path d="M875 1856 c-338 -55 -571 -275 -641 -603 -23 -113 -21 -305 6 -408
59 -228 194 -396 398 -493 140 -66 247 -85 447 -79 177 5 301 30 412 84 l58
28 3 385 2 385 -285 0 -285 0 0 -132 0 -133 135 0 135 0 0 -170 0 -169 -52
-16 c-65 -19 -192 -19 -281 0 -255 54 -412 301 -379 595 15 125 44 209 101
284 94 125 237 190 416 190 125 -1 202 -20 323 -80 51 -26 94 -45 97 -43 15
16 96 213 91 225 -11 27 -209 114 -309 135 -123 25 -291 32 -392 15z"/>
<path d="M4540 1070 l0 -780 155 0 155 0 0 315 0 315 295 0 295 0 0 140 0 140
-295 0 -295 0 0 185 0 185 330 0 330 0 0 140 0 140 -485 0 -485 0 0 -780z"/>
<path d="M2264 1432 c-82 -29 -140 -80 -188 -167 -16 -29 -16 -27 -10 68 l6
97 -141 0 -141 0 0 -570 0 -570 145 0 145 0 0 358 0 358 28 45 c16 24 38 52
50 62 50 45 162 60 229 32 20 -9 40 -12 44 -8 11 12 56 261 50 272 -21 33
-148 46 -217 23z"/>
<path d="M6582 1430 c-100 -26 -166 -64 -237 -135 -113 -112 -165 -254 -165
-449 0 -286 152 -494 410 -561 84 -22 245 -22 330 0 186 48 327 181 384 364
92 293 -21 614 -260 734 -131 66 -317 85 -462 47z m271 -240 c133 -50 204
-214 177 -408 -20 -142 -92 -236 -201 -262 -103 -25 -210 6 -268 77 -108 131
-102 413 12 531 74 78 177 100 280 62z"/>
<path d="M2640 860 l0 -570 145 0 145 0 0 570 0 570 -145 0 -145 0 0 -570z"/>
<path d="M7353 1418 c6 -16 321 -1027 338 -1085 l12 -43 158 0 157 0 15 47 c8
27 56 181 107 343 50 162 95 309 99 325 l7 30 11 -35 c7 -19 53 -165 103 -325
50 -159 98 -311 106 -337 l16 -48 152 0 153 0 32 102 c63 203 300 984 307
1011 l6 27 -146 0 c-109 0 -148 -3 -150 -12 -2 -7 -43 -158 -90 -334 -48 -177
-93 -346 -102 -375 l-16 -54 -32 110 c-18 61 -70 235 -116 388 l-84 277 -142
0 -143 0 -25 -82 c-14 -46 -67 -224 -117 -396 -51 -171 -94 -310 -97 -308 -2
3 -50 179 -106 393 l-101 388 -159 3 c-126 2 -157 0 -153 -10z"/>
</g>
</svg>
